<?xml version="1.0" standalone="no"?>
<!DOCTYPE svg PUBLIC "-//W3C//DTD SVG 20010904//EN"
 "http://www.w3.org/TR/2001/REC-SVG-20010904/DTD/svg10.dtd">
<svg version="1.0" xmlns="http://www.w3.org/2000/svg"
 width="512.000000pt" height="512.000000pt" viewBox="0 0 512.000000 512.000000"
 preserveAspectRatio="xMidYMid meet">
<metadata>
Created by potrace 1.11, written by Peter Selinger 2001-2013
</metadata>
<g transform="translate(0.000000,512.000000) scale(0.100000,-0.100000)"
fill="#000000" stroke="none">
<path d="M0 2560 l0 -2560 2560 0 2560 0 0 2560 0 2560 -2560 0 -2560 0 0
-2560z m4180 1270 c90 -14 200 -70 244 -124 65 -79 81 -127 81 -251 0 -104 -2
-114 -33 -179 -44 -94 -103 -174 -214 -292 -52 -54 -127 -137 -168 -184 l-74
-85 262 -3 262 -2 0 -120 0 -120 -470 0 -470 0 0 101 0 100 230 243 c250 262
299 322 339 406 68 145 1 290 -128 277 -76 -8 -136 -72 -147 -158 l-7 -49
-157 0 -157 0 9 62 c24 177 164 329 344 372 71 17 166 19 254 6z m-835 -330
c72 -173 134 -323 138 -332 6 -17 -3 -18 -111 -18 l-117 0 -39 103 c-21 56
-57 149 -79 206 l-40 105 -52 -135 c-29 -73 -64 -167 -79 -206 l-28 -73 -114
0 c-63 0 -114 4 -114 8 0 4 58 147 128 317 71 171 131 318 135 328 6 16 19 17
124 15 l117 -3 131 -315z m-1750 169 c510 -62 897 -391 1040 -884 41 -143 55
-260 55 -475 0 -310 -34 -480 -140 -695 -65 -131 -129 -223 -222 -315 -194
-194 -445 -315 -728 -350 -48 -5 -296 -10 -572 -10 l-488 0 0 1370 0 1370 483
0 c289 0 518 -4 572 -11z"/>
<path d="M1200 2311 l0 -861 153 0 c178 0 261 15 350 62 172 91 275 281 306
562 23 204 10 487 -30 644 -41 163 -138 309 -251 375 -97 56 -159 70 -350 75
l-178 4 0 -861z"/>
</g>
</svg>
